<svg width="11" height="11" viewBox="0 0 11 11" fill="none" xmlns="http://www.w3.org/2000/svg">
<path d="M0 5.10335C0 5.48138 0.323701 5.78624 0.710872 5.78624H4.60163V9.52382C4.60163 9.89575 4.92533 10.2067 5.3125 10.2067C5.69967 10.2067 6.02337 9.89575 6.02337 9.52382V5.78624H9.91413C10.3013 5.78624 10.625 5.48138 10.625 5.10335C10.625 4.73142 10.3013 4.42047 9.91413 4.42047H6.02337V0.682886C6.02337 0.310957 5.69967 0 5.3125 0C4.92533 0 4.60163 0.310957 4.60163 0.682886V4.42047H0.710872C0.323701 4.42047 0 4.73142 0 5.10335Z" fill="white"/>
</svg>
